<?xml version="1.0" encoding="UTF-8" standalone="no"?>
<!-- Generator: Adobe Illustrator 15.1.0, SVG Export Plug-In . SVG Version: 6.00 Build 0)  -->

<svg
   xmlns:dc="http://purl.org/dc/elements/1.1/"
   xmlns:cc="http://creativecommons.org/ns#"
   xmlns:rdf="http://www.w3.org/1999/02/22-rdf-syntax-ns#"
   xmlns:svg="http://www.w3.org/2000/svg"
   xmlns="http://www.w3.org/2000/svg"
   xmlns:sodipodi="http://sodipodi.sourceforge.net/DTD/sodipodi-0.dtd"
   xmlns:inkscape="http://www.inkscape.org/namespaces/inkscape"
   version="1.1"
   id="Ebene_1"
   x="0px"
   y="0px"
   width="763.667px"
   height="535.085px"
   viewBox="0 0 763.667 535.085"
   enable-background="new 0 0 763.667 535.085"
   xml:space="preserve"
   inkscape:version="0.47 r22583"
   sodipodi:docname="beampath_schematic.svg"
   inkscape:export-filename="/home/braun/Desktop/PCBWriter_doc/pcbwriter.github.io/img/beampath_schematic.png"
   inkscape:export-xdpi="47.140965"
   inkscape:export-ydpi="47.140965"><metadata
   id="metadata141"><rdf:RDF><cc:Work
       rdf:about=""><dc:format>image/svg+xml</dc:format><dc:type
         rdf:resource="http://purl.org/dc/dcmitype/StillImage" /><dc:title></dc:title></cc:Work></rdf:RDF></metadata><defs
   id="defs139"><inkscape:perspective
     sodipodi:type="inkscape:persp3d"
     inkscape:vp_x="0 : 267.54251 : 1"
     inkscape:vp_y="0 : 1000 : 0"
     inkscape:vp_z="763.66699 : 267.54251 : 1"
     inkscape:persp3d-origin="381.8335 : 178.36167 : 1"
     id="perspective143" /><inkscape:perspective
     id="perspective2957"
     inkscape:persp3d-origin="0.5 : 0.33333333 : 1"
     inkscape:vp_z="1 : 0.5 : 1"
     inkscape:vp_y="0 : 1000 : 0"
     inkscape:vp_x="0 : 0.5 : 1"
     sodipodi:type="inkscape:persp3d" /></defs><sodipodi:namedview
   pagecolor="#ffffff"
   bordercolor="#666666"
   borderopacity="1"
   objecttolerance="10"
   gridtolerance="10"
   guidetolerance="10"
   inkscape:pageopacity="0"
   inkscape:pageshadow="2"
   inkscape:window-width="1440"
   inkscape:window-height="825"
   id="namedview137"
   showgrid="false"
   inkscape:zoom="0.88210281"
   inkscape:cx="630.2483"
   inkscape:cy="279.35182"
   inkscape:window-x="0"
   inkscape:window-y="24"
   inkscape:window-maximized="1"
   inkscape:current-layer="Ebene_1" />
<g
   opacity="0.67"
   id="g3">
	<g
   id="g5">
		<line
   fill="none"
   stroke="#341C97"
   stroke-width="5"
   stroke-miterlimit="10"
   x1="488.9"
   y1="248.286"
   x2="489.959"
   y2="249.348"
   id="line7" />
		
			<line
   fill="none"
   stroke="#341C97"
   stroke-width="5"
   stroke-miterlimit="10"
   stroke-dasharray="3.0221,3.0221"
   x1="492.094"
   y1="251.487"
   x2="674.593"
   y2="434.405"
   id="line9" />
		
			<line
   fill="none"
   stroke="#341C97"
   stroke-width="5"
   stroke-miterlimit="10"
   x1="675.661"
   y1="435.476"
   x2="676.72"
   y2="436.537"
   id="line11" />
	</g>
</g>
<g
   id="g13">
	<g
   id="g15">
		
			<rect
   x="68.523"
   y="359.35"
   transform="matrix(0.9188 -0.3947 0.3947 0.9188 -137.15 100.0196)"
   fill="#FFFFFF"
   stroke="#939598"
   stroke-width="2"
   stroke-miterlimit="10"
   width="211.995"
   height="48"
   id="rect17" />
		<polygon
   fill="#FFFFFF"
   stroke="#939598"
   stroke-width="2"
   stroke-miterlimit="10"
   points="224.458,335.771 262.434,319.457     281.385,363.56 243.411,379.869   "
   id="polygon19" />
		<g
   id="path1965">
			<path
   fill="none"
   stroke="#010101"
   d="M72.789,388.027"
   id="path22" />
		</g>
		<g
   id="g1906"
   transform="translate(8.146196,8.022892)">
			<g
   id="path1892">
				<path
   fill="#FBF52F"
   d="M90.946,382.933c-1.033,0.445-1.225,1.712-1.248,2.71c-1.756,15.064-3.616,30.118-5.306,45.186      c0.097,1.393,1.897,2.229,3.042,1.444c14.178-6.116,28.397-12.146,42.546-18.325c1.141-0.771,1.006-2.75-0.25-3.343      c-12.395-9.222-24.726-18.537-37.164-27.697C92.056,382.694,91.45,382.688,90.946,382.933z"
   id="path26" />
			</g>
			<g
   id="g4">
				<g
   id="sign_border">
					<path
   fill="#010101"
   d="M129.603,411.318l-37.042-27.661c-0.378-0.28-0.872-0.334-1.298-0.15       c-0.426,0.183-0.723,0.584-0.783,1.045l-5.431,45.909c-0.056,0.468,0.14,0.925,0.514,1.197       c0.378,0.281,0.871,0.335,1.297,0.151l42.473-18.249c0.426-0.183,0.723-0.585,0.783-1.045       C130.173,412.048,129.977,411.592,129.603,411.318z"
   id="path30" />
				</g>
				<g
   id="sign_bg">
					<polygon
   fill="#F5F32A"
   points="87.909,428.514 92.813,387.112 126.222,412.052      "
   id="polygon33" />
				</g>
			</g>
			<g
   id="g2978"
   transform="translate(686.9172,23.4099)">
				<g
   id="g2942">
					<g
   id="rect2934">
						
							<rect
   x="-584.994"
   y="376.707"
   transform="matrix(-0.9189 0.3944 -0.3944 -0.9189 -969.665 971.1089)"
   fill="#010101"
   width="0.728"
   height="18.396"
   id="rect38" />
						<path
   fill="#010101"
   d="M-580.618,394.232l-0.735,0.315l-7.291-16.969l0.735-0.316L-580.618,394.232z M-581.314,394.453        l0.602-0.259l-7.234-16.836l-0.602,0.258L-581.314,394.453z"
   id="path40" />
					</g>
					<g
   id="rect2940">
						
							<rect
   x="-584.994"
   y="379.882"
   transform="matrix(-0.7858 0.6185 -0.6185 -0.7858 -805.3131 1050.7476)"
   fill="#010101"
   width="0.727"
   height="12.048"
   id="rect43" />
						<path
   fill="#010101"
   d="M-581.192,390.912l-0.023-0.028l-7.48-9.49l0.627-0.494l7.504,9.518L-581.192,390.912z         M-588.595,381.406l7.414,9.404l0.515-0.405L-588.08,381L-588.595,381.406z"
   id="path45" />
					</g>
				</g>
				<g
   id="g2946"
   transform="matrix(0.866025,-0.5,0.5,0.866025,-212.5458,-150.8503)">
					<g
   id="rect2948">
						
							<rect
   x="-590.976"
   y="269.604"
   transform="matrix(0.919 -0.3942 0.3942 0.919 -157.7181 -210.2341)"
   fill="#010101"
   width="0.727"
   height="18.396"
   id="rect49" />
						<path
   fill="#010101"
   d="M-587.335,287.444l-7.291-16.969l0.735-0.316l0.014,0.033l7.277,16.936L-587.335,287.444z         M-594.531,270.513l7.235,16.836l0.602-0.258l-7.233-16.837L-594.531,270.513z"
   id="path51" />
					</g>
					<g
   id="rect2950">
						
							<rect
   x="-590.976"
   y="272.778"
   transform="matrix(0.7856 -0.6188 0.6188 0.7856 -299.1674 -305.6754)"
   fill="#010101"
   width="0.727"
   height="12.048"
   id="rect54" />
						<path
   fill="#010101"
   d="M-587.175,283.808l-0.023-0.028l-7.481-9.49l0.628-0.495l0.023,0.028l7.481,9.489L-587.175,283.808z         M-594.577,274.302l7.415,9.405l0.514-0.406l-7.414-9.405L-594.577,274.302z"
   id="path56" />
					</g>
				</g>
				<g
   id="g2952"
   transform="matrix(0.5,-0.866025,0.866025,0.5,-472.0409,-175.2175)">
					<g
   id="rect2954">
						
							<rect
   x="-542.605"
   y="173.858"
   transform="matrix(0.9188 -0.3948 0.3948 0.9188 -116.3094 -199.1964)"
   fill="#010101"
   width="0.727"
   height="18.397"
   id="rect60" />
						<path
   fill="#010101"
   d="M-538.963,191.699l-7.291-16.969l0.734-0.315l7.291,16.969L-538.963,191.699z M-546.16,174.768        l7.234,16.836l0.602-0.259l-7.234-16.836L-546.16,174.768z"
   id="path62" />
					</g>
					<g
   id="rect2956">
						
							<rect
   x="-542.605"
   y="177.032"
   transform="matrix(0.7856 -0.6187 0.6187 0.7856 -229.5114 -296.2508)"
   fill="#010101"
   width="0.727"
   height="12.048"
   id="rect65" />
						<path
   fill="#010101"
   d="M-538.804,188.063l-0.022-0.028l-7.482-9.49l0.628-0.495l0.023,0.028l7.48,9.49L-538.804,188.063z         M-546.206,178.557l7.414,9.405l0.515-0.406l-7.414-9.404L-546.206,178.557z"
   id="path67" />
					</g>
				</g>
				<g
   id="rect2960">
					
						<rect
   x="-582.137"
   y="372.37"
   transform="matrix(0.3946 0.9188 -0.9188 0.3946 1.2771 767.4177)"
   fill="#010101"
   width="0.728"
   height="24.615"
   id="rect70" />
					<path
   fill="#010101"
   d="M-570.274,380.172l-22.683,9.747l-0.315-0.736l22.682-9.745L-570.274,380.172z M-592.919,389.824       l22.551-9.689l-0.26-0.602l-22.549,9.689L-592.919,389.824z"
   id="path72" />
				</g>
				<g
   id="rect2962">
					
						<rect
   x="-584.994"
   y="379.882"
   transform="matrix(0.6194 0.785 -0.785 0.6194 80.4686 605.813)"
   fill="#010101"
   width="0.728"
   height="12.048"
   id="rect75" />
					<path
   fill="#010101"
   d="M-589.142,389.972l-0.494-0.628l0.028-0.022l9.49-7.481l0.495,0.628l-0.029,0.022L-589.142,389.972z        M-589.536,389.356l0.406,0.515l9.404-7.415l-0.405-0.515L-589.536,389.356z"
   id="path77" />
				</g>
				<g
   id="g2964"
   transform="matrix(-0.5,-0.866026,0.866026,-0.5,-859.8043,145.9731)">
					<g
   id="rect2966">
						
							<rect
   x="-345.739"
   y="109.143"
   transform="matrix(0.9187 -0.3949 0.3949 0.9187 -74.8087 -126.7757)"
   fill="#010101"
   width="0.728"
   height="18.397"
   id="rect81" />
						<path
   fill="#010101"
   d="M-349.387,110.015l0.734-0.316l0.015,0.033l7.276,16.936l-0.734,0.316L-349.387,110.015z         M-348.69,109.794l-0.603,0.259l7.234,16.836l0.602-0.258L-348.69,109.794z"
   id="path83" />
					</g>
					<g
   id="rect2968">
						
							<rect
   x="-345.739"
   y="112.318"
   transform="matrix(0.7849 -0.6196 0.6196 0.7849 -147.5947 -188.532)"
   fill="#010101"
   width="0.728"
   height="12.048"
   id="rect86" />
						<path
   fill="#010101"
   d="M-349.44,113.83l0.629-0.495l7.503,9.519l-0.628,0.495l-0.023-0.029L-349.44,113.83z         M-348.824,113.437l-0.515,0.406l7.415,9.405l0.515-0.406L-348.824,113.437z"
   id="path88" />
					</g>
				</g>
				<g
   id="g2970"
   transform="matrix(-0.866026,-0.500001,0.500001,-0.866026,-884.1717,405.4684)">
					<g
   id="rect2972">
						
							<rect
   x="-249.992"
   y="157.515"
   transform="matrix(0.919 -0.3942 0.3942 0.919 -85.9225 -84.8979)"
   fill="#010101"
   width="0.727"
   height="18.397"
   id="rect92" />
						<path
   fill="#010101"
   d="M-253.641,158.386l0.735-0.315l0.014,0.033l7.277,16.935l-0.734,0.316L-253.641,158.386z         M-252.945,158.165l-0.602,0.258l7.234,16.836l0.601-0.258L-252.945,158.165z"
   id="path94" />
					</g>
					<g
   id="rect2974">
						
							<rect
   x="-249.992"
   y="160.689"
   transform="matrix(0.786 -0.6182 0.6182 0.786 -156.4763 -118.6474)"
   fill="#010101"
   width="0.727"
   height="12.047"
   id="rect97" />
						<path
   fill="#010101"
   d="M-253.695,162.201l0.628-0.494l7.504,9.517l-0.629,0.495l-0.022-0.028L-253.695,162.201z         M-253.079,161.807l-0.514,0.406l7.414,9.404l0.515-0.405L-253.079,161.807z"
   id="path99" />
					</g>
				</g>
			</g>
		</g>
		
			<text
   transform="matrix(0.9188,-0.3948,0.3948,0.9188,144.2398,403.3521)"
   font-size="18.9431"
   id="text101"
   style="font-size:18.94309998px;font-family:HelveticaNeue-Light">UV laser</text>

	</g>
</g>
<g
   id="g103">
	<polygon
   fill="#FFFFFF"
   points="476.63,246.206 437.153,139.914 509.464,52.58 621.255,71.537 660.732,177.828 588.421,265.163     "
   id="polygon105" />
	<path
   fill="#D1D3D4"
   d="M503.086,60.282c0,0-0.446,0.539-1.005,1.213l-0.015,0.019c-0.002,0.001-0.003,0.002-0.004,0.004   l-0.006,0.008c-0.001,0-0.001,0.001-0.002,0.001l-2.157,2.605l2.311,1.913l3.189-3.851L503.086,60.282L503.086,60.282z    M496.709,67.984c0,0-1.065,1.287-1.965,2.373l-0.001,0.001c-0.011,0.014-0.022,0.027-0.034,0.042l-1.188,1.436l2.311,1.913   l3.188-3.851L496.709,67.984L496.709,67.984z M490.332,75.687c0,0-2.104,2.541-2.894,3.495l-0.001,0.001   c-0.008,0.009-0.015,0.018-0.021,0.026l-0.001,0.001c-0.007,0.008-0.014,0.016-0.02,0.024l-0.003,0.004   c-0.003,0.003-0.006,0.007-0.009,0.01l-0.001,0c-0.001,0.002-0.003,0.003-0.004,0.005l-0.002,0.002   c-0.001,0.001-0.001,0.001-0.002,0.002l-0.004,0.005c-0.001,0-0.001,0.001-0.002,0.001l-0.002,0.003   c-0.001,0-0.002,0.001-0.002,0.002l-0.222,0.267l2.311,1.914l3.189-3.852L490.332,75.687L490.332,75.687z M483.955,83.39   l-0.351,0.423v0l-0.006,0.007c0,0,0,0-0.001,0.001l-0.011,0.014c-0.001,0-0.001,0.001-0.002,0.002l-0.036,0.043   c-0.001,0.001-0.002,0.002-0.003,0.004l-0.011,0.012c0,0.001-0.002,0.002-0.002,0.003l-0.003,0.003   c-0.001,0.001-0.002,0.002-0.003,0.004l-0.006,0.006v0l-0.046,0.056c-0.001,0-0.001,0.001-0.002,0.002l-0.037,0.044   c-0.001,0.002-0.003,0.004-0.005,0.006l-0.006,0.007c-0.003,0.004-0.007,0.008-0.011,0.013l-0.002,0.002   c-0.004,0.005-0.008,0.01-0.012,0.015l-0.003,0.003c-0.019,0.022-0.038,0.045-0.058,0.069l-0.001,0.001   c-0.927,1.119-2.573,3.108-2.573,3.108l2.311,1.913l3.188-3.851L483.955,83.39L483.955,83.39z M477.577,91.092l-1.905,2.301v0   l-0.007,0.008c-0.678,0.819-1.276,1.542-1.276,1.542l2.311,1.913l3.189-3.852L477.577,91.092L477.577,91.092z M471.2,98.794   l-1.165,1.406v0l-0.008,0.009c-0.005,0.006-0.01,0.012-0.015,0.018l0,0c-0.906,1.095-2.001,2.417-2.001,2.417l2.311,1.913   l3.188-3.851L471.2,98.794L471.2,98.794z M464.822,106.497l-3.189,3.852l2.311,1.913l3.189-3.851L464.822,106.497L464.822,106.497z    M458.445,114.199c0,0-0.15,0.181-0.384,0.464l-0.015,0.019c-0.001,0.001-0.001,0.002-0.002,0.003l-2.787,3.366l2.311,1.914   l3.189-3.852L458.445,114.199L458.445,114.199z M452.067,121.902c0,0-0.609,0.736-1.296,1.565l-0.001,0.002   c-0.006,0.007-0.012,0.014-0.017,0.021l-0.001,0.001c-0.005,0.006-0.011,0.013-0.016,0.019l-0.005,0.006   c-0.004,0.005-0.008,0.009-0.012,0.014l-1.841,2.223l2.311,1.913l3.189-3.851L452.067,121.902L452.067,121.902z M445.689,129.604   c0,0-1.339,1.618-2.282,2.756l-0.002,0.003c-0.004,0.005-0.009,0.01-0.013,0.016l-0.891,1.076l2.311,1.913l3.189-3.851   L445.689,129.604L445.689,129.604z M439.312,137.307l-2.159,2.607l0,0l0,0l0,0l0,0l0,0l0,0l0,0l0,0l0,0l0,0l0,0l0,0l0,0l0,0   l0.562,1.514l0.874-0.325l0.875,0.724l2.159-2.607L439.312,137.307L439.312,137.307z M442.269,145.07l-2.812,1.045   c0,0,0.642,1.727,1.146,3.084l0.003,0.007c0,0.001,0,0.001,0,0.002l0.008,0.022c0.001,0.002,0.002,0.004,0.002,0.006l0.581,1.564   l2.812-1.044L442.269,145.07L442.269,145.07z M445.75,154.445l-2.812,1.044l0.529,1.424c0,0.001,0.001,0.002,0.001,0.002   l0.004,0.012v0l0.003,0.009c0.001,0.002,0.001,0.003,0.002,0.005l0.004,0.01c0.001,0.003,0.002,0.006,0.003,0.01l0.004,0.011   c0.51,1.373,1.19,3.204,1.19,3.204l2.812-1.045L445.75,154.445L445.75,154.445z M449.232,163.819l-2.812,1.044   c0,0,1.138,3.064,1.574,4.238l0,0c0,0.002,0.001,0.003,0.002,0.005l0.006,0.015c0,0,0,0,0,0l0.009,0.024c0,0,0,0,0,0.001   l0.005,0.015c0,0,0,0,0,0.001l0.003,0.007v0l0.008,0.023l0,0l0.132,0.356l2.812-1.044L449.232,163.819L449.232,163.819z    M452.714,173.193l-2.812,1.044l0.815,2.195c0.001,0.003,0.002,0.006,0.004,0.01l0.001,0.003c0.003,0.008,0.006,0.017,0.009,0.025   l0,0.001c0.449,1.207,0.911,2.453,0.911,2.453l2.812-1.044L452.714,173.193L452.714,173.193z M456.195,182.568l-2.812,1.044   l1.741,4.687l2.812-1.044L456.195,182.568L456.195,182.568z M459.677,191.942l-2.812,1.044l1.04,2.799   c0,0.001,0.001,0.003,0.001,0.004l0.002,0.007c0.003,0.007,0.005,0.014,0.008,0.021l0.002,0.005c0.366,0.986,0.687,1.85,0.687,1.85   l2.812-1.044L459.677,191.942L459.677,191.942z M463.159,201.316l-2.812,1.044c0,0,0.382,1.029,0.789,2.124l0.001,0.001   c0.006,0.017,0.012,0.033,0.018,0.049l0.004,0.011c0.002,0.007,0.005,0.013,0.007,0.02l0.001,0.003   c0.001,0.003,0.002,0.006,0.003,0.009l0.003,0.008c0,0,0,0.001,0,0.001l0.914,2.46l2.812-1.044L463.159,201.316L463.159,201.316z    M466.64,210.691l-2.812,1.044l0.75,2.021c0,0.001,0.001,0.002,0.001,0.003l0.001,0.004c0.001,0.003,0.003,0.007,0.004,0.01   l0.003,0.009c0,0.002,0.001,0.003,0.002,0.005l0.001,0.003c0.001,0.003,0.002,0.006,0.003,0.009l0.002,0.005   c0.466,1.255,0.972,2.616,0.972,2.616l2.812-1.044L466.64,210.691L466.64,210.691z M470.122,220.065l-2.812,1.045l1.741,4.687   l2.812-1.044L470.122,220.065L470.122,220.065z M473.604,229.44l-2.812,1.044l0.959,2.583c0,0.001,0.001,0.002,0.001,0.003   l0.003,0.008c0.402,1.083,0.777,2.094,0.777,2.094l2.812-1.044L473.604,229.44L473.604,229.44z M477.085,238.814l-2.812,1.044   c0,0,0.021,0.056,0.058,0.154l0.001,0.003c0.002,0.006,0.005,0.013,0.007,0.02l0.001,0.002c0.001,0.003,0.002,0.006,0.004,0.01   l0.01,0.027c0.001,0.003,0.002,0.006,0.003,0.009l0.002,0.003c0.001,0.003,0.002,0.007,0.004,0.01v0.002   c0.001,0.001,0.001,0.002,0.002,0.004l0.006,0.018c0.001,0,0.001,0.001,0.001,0.002l0.002,0.003c0,0.002,0.001,0.003,0.002,0.005v0   c0,0.001,0.001,0.003,0.001,0.004l0.002,0.005c0.001,0,0.001,0.001,0.001,0.002l0.002,0.005v0l1.634,4.397l2.812-1.044   L477.085,238.814L477.085,238.814z M480.316,243.788l-0.502,2.958c0,0,2.328,0.395,3.784,0.642l0.004,0   c0.015,0.002,0.028,0.005,0.043,0.007l0.009,0.001c0.006,0.001,0.012,0.002,0.019,0.003l0.004,0c0.004,0,0.008,0.001,0.012,0.002   l1.056,0.179l0.502-2.958L480.316,243.788L480.316,243.788z M490.175,245.46l-0.502,2.958c0,0,1.644,0.279,3.033,0.514l0.013,0.002   c0.003,0,0.005,0.001,0.007,0.001l1.877,0.318l0.502-2.958L490.175,245.46L490.175,245.46z M500.034,247.131l-0.501,2.958   c0,0,1.064,0.181,2.205,0.374h0.001c0.003,0,0.007,0.001,0.01,0.001l2.714,0.46l0.501-2.958L500.034,247.131L500.034,247.131z    M509.893,248.803l-0.501,2.958c0,0,0.608,0.103,1.399,0.237l0,0c0.009,0.001,0.017,0.003,0.025,0.004h0.001   c0.004,0,0.008,0.001,0.011,0.002l3.493,0.592l0.501-2.958L509.893,248.803L509.893,248.803z M519.752,250.475l-0.501,2.958   l4.93,0.836l0.501-2.958L519.752,250.475L519.752,250.475z M529.612,252.147l-0.502,2.958l0.366,0.062c0.001,0,0.001,0,0.001,0   l0.007,0.001c0.003,0.001,0.007,0.001,0.011,0.002l0.006,0.001c0.003,0,0.007,0.001,0.01,0.002l0.016,0.002h0.001l0.007,0.001   c0.01,0.001,0.02,0.003,0.028,0.005l0.006,0.001c1.222,0.207,4.472,0.758,4.472,0.758l0.502-2.958L529.612,252.147L529.612,252.147   z M539.471,253.819l-0.502,2.958l2.774,0.47c0,0,0.001,0,0.001,0l0.012,0.002c0.006,0.001,0.012,0.002,0.018,0.003l0.01,0.001   c1.105,0.188,2.115,0.359,2.115,0.359l0.502-2.958L539.471,253.819L539.471,253.819z M549.331,255.491l-0.502,2.958l3.804,0.645   c0.001,0,0.002,0,0.004,0l0.007,0.001c0.647,0.109,1.115,0.189,1.115,0.189l0.502-2.958L549.331,255.491L549.331,255.491z    M559.19,257.163l-0.502,2.958l4.788,0.812c0.003,0,0.007,0.001,0.01,0.001l0,0c0.002,0,0.004,0.001,0.007,0.001l0.008,0.001   c0.075,0.013,0.117,0.02,0.117,0.02l0.502-2.958L559.19,257.163L559.19,257.163z M569.048,258.835l-0.501,2.958   c0,0,2.532,0.429,3.967,0.672l0.017,0.003c0.004,0.001,0.008,0.001,0.013,0.002l0.009,0.001c0.002,0,0.004,0,0.006,0.001   l0.919,0.156l0.501-2.958L569.048,258.835L569.048,258.835z M578.908,260.506l-0.501,2.958c0,0,1.515,0.257,2.865,0.486l2.064,0.35   l0.501-2.958L578.908,260.506L578.908,260.506z M589.199,259.52l-3.088,3.73l2.17,1.797l0,0l-2.17-1.797l2.17,1.797l-0.015,0.09   l0.155,0.026l0,0l3.088-3.729L589.199,259.52L589.199,259.52z M595.576,251.817l-3.188,3.851l2.311,1.913   c0,0,2.355-2.844,3.018-3.644l0,0c0.006-0.007,0.012-0.014,0.017-0.02l0.002-0.002c0.003-0.003,0.005-0.006,0.008-0.009   l0.001-0.001c0-0.001,0.001-0.002,0.002-0.003l0.015-0.018c0.001,0,0.001-0.001,0.002-0.002l0.028-0.034c0,0,0.001,0,0.001-0.001   l0.002-0.002c0,0,0.001-0.001,0.001-0.001l0.094-0.113L595.576,251.817L595.576,251.817z M601.954,244.115l-3.188,3.851   l2.311,1.914l2.707-3.27c0.001-0.001,0.002-0.003,0.004-0.004l0.001-0.001c0.001-0.002,0.003-0.003,0.004-0.005l0.004-0.005   c0.008-0.009,0.016-0.019,0.023-0.028l0.004-0.004c0.008-0.01,0.017-0.02,0.024-0.03l0.001,0c0.253-0.306,0.416-0.503,0.416-0.503   L601.954,244.115L601.954,244.115z M608.332,236.412l-3.189,3.852l2.311,1.913l3.189-3.851L608.332,236.412L608.332,236.412z    M614.708,228.71l-3.188,3.851l2.311,1.913l2.612-3.155c0.001-0.002,0.003-0.003,0.004-0.005l0.02-0.023   c0.009-0.011,0.017-0.021,0.025-0.031l0.002-0.002c0.004-0.005,0.008-0.01,0.012-0.015l0.019-0.021   c0.297-0.359,0.495-0.599,0.495-0.599L614.708,228.71L614.708,228.71z M621.085,221.007l-3.188,3.851l2.311,1.914l3.189-3.852   L621.085,221.007L621.085,221.007z M627.463,213.305l-3.188,3.852l2.311,1.913l2.53-3.056c0.004-0.005,0.008-0.01,0.012-0.015   l0.003-0.003c0.005-0.005,0.009-0.011,0.014-0.017v0c0.004-0.005,0.009-0.01,0.012-0.014l0.007-0.007   c0.36-0.436,0.611-0.739,0.611-0.739L627.463,213.305L627.463,213.305z M633.841,205.603l-3.189,3.851l2.311,1.913l1.905-2.301   c0.001,0,0.001,0,0.001,0l0.007-0.009c0.005-0.005,0.009-0.01,0.014-0.016l0.003-0.004c0.671-0.811,1.26-1.521,1.26-1.521   L633.841,205.603L633.841,205.603z M640.218,197.9l-3.188,3.851l2.311,1.913l2.436-2.941c0.001-0.001,0.002-0.002,0.003-0.003   l0.007-0.008l0,0l0.015-0.018c0.001-0.001,0.002-0.002,0.002-0.002l0.006-0.007c0.002-0.002,0.004-0.004,0.005-0.006l0.001-0.001   c0.001-0.001,0.003-0.003,0.004-0.005l0.006-0.006c0.009-0.012,0.019-0.023,0.028-0.035l0.002-0.002   c0.395-0.477,0.675-0.816,0.675-0.816L640.218,197.9L640.218,197.9z M646.595,190.197l-3.188,3.852l2.311,1.913l1.803-2.177   c0.001-0.001,0.003-0.002,0.004-0.004l0.005-0.006c0.001-0.001,0.002-0.003,0.004-0.005l0.01-0.013   c0.01-0.011,0.019-0.021,0.027-0.032l0.005-0.006c0.005-0.006,0.01-0.011,0.014-0.017l0.006-0.007   c0.004-0.005,0.008-0.009,0.012-0.014l0.007-0.007c0.685-0.828,1.294-1.563,1.294-1.563L646.595,190.197L646.595,190.197z    M652.973,182.495l-3.188,3.851l2.311,1.913c0,0,0.744-0.899,1.515-1.829l1.674-2.022L652.973,182.495L652.973,182.495z    M658.421,175.915l1.015,0.84l0,0L658.421,175.915l-2.26,2.729l2.311,1.913l2.061-2.488c0.001,0,0.001-0.001,0.002-0.001   l0.003-0.004l0,0l0.004-0.004v0l0.003-0.003c0-0.001,0.001-0.002,0.002-0.003l0.001-0.001c0.002-0.002,0.004-0.005,0.006-0.007   l0.003-0.003c0.002-0.002,0.004-0.005,0.006-0.008l0,0c0.002-0.003,0.005-0.005,0.007-0.008l0.001-0.002   c0.002-0.002,0.004-0.005,0.007-0.007l0.001-0.001c0.001-0.001,0.002-0.002,0.003-0.004l0,0c0,0,0.001-0.001,0.002-0.002   l0.006-0.008c0.001,0,0.001,0,0.001,0l0.002-0.003c0.006-0.007,0.013-0.015,0.019-0.022l0.002-0.002   c0.003-0.004,0.007-0.009,0.011-0.013l0.001-0.001c0.001-0.001,0.002-0.002,0.002-0.002l0.001-0.001   c0.001-0.001,0.001-0.002,0.002-0.003l0.001-0.001c0.001-0.001,0.002-0.002,0.003-0.003l0.006-0.007   c0.003-0.003,0.006-0.006,0.008-0.009l0,0c0.055-0.066,0.086-0.104,0.086-0.104l0,0l0,0l0,0l0,0l0,0l0,0l0,0l0,0l0,0l0,0l0,0l0,0   l0,0l0,0l-0.508-1.366l-0.788,0.293L658.421,175.915L658.421,175.915z M656.743,167.087l-2.812,1.045l1.741,4.687l2.812-1.044   L656.743,167.087L656.743,167.087z M653.261,157.713l-2.812,1.044l1.741,4.687l2.812-1.044L653.261,157.713L653.261,157.713z    M649.78,148.339l-2.812,1.044l1.741,4.688l2.812-1.044L649.78,148.339L649.78,148.339z M646.298,138.965l-2.812,1.044l1.741,4.687   l2.812-1.044c0,0-0.096-0.257-0.242-0.652l0,0c-0.002-0.006-0.004-0.013-0.007-0.02v0c-0.002-0.006-0.005-0.012-0.007-0.018   l-0.002-0.004c-0.002-0.005-0.003-0.01-0.005-0.015l-0.003-0.007c0,0,0,0,0,0L646.298,138.965L646.298,138.965z M642.817,129.59   l-2.812,1.044l1.74,4.687l2.812-1.044l-1.234-3.324l-0.001-0.001l-0.032-0.087l0,0l-0.003-0.009   c-0.001-0.002-0.002-0.005-0.003-0.007l-0.002-0.005c-0.001-0.003-0.002-0.006-0.003-0.009l-0.001-0.001   c-0.001-0.003-0.002-0.007-0.003-0.01l-0.001-0.002c-0.006-0.015-0.012-0.03-0.018-0.046l-0.001-0.004   c-0.012-0.031-0.023-0.061-0.034-0.091l-0.002-0.005C642.986,130.047,642.817,129.59,642.817,129.59L642.817,129.59z    M639.334,120.216l-2.812,1.044l1.74,4.688l2.812-1.044c0,0-0.244-0.658-0.55-1.48l-0.007-0.019   c-0.001-0.002-0.002-0.005-0.003-0.008l-0.002-0.005c-0.002-0.006-0.005-0.013-0.007-0.02L639.334,120.216L639.334,120.216z    M635.853,110.842l-2.812,1.044l1.741,4.687l2.812-1.044L635.853,110.842L635.853,110.842z M632.372,101.467l-2.812,1.044   l1.741,4.687l2.812-1.044c0,0-0.52-1.397-0.99-2.666l-0.005-0.011c-0.002-0.005-0.004-0.011-0.006-0.017l-0.005-0.012l0,0   L632.372,101.467L632.372,101.467z M628.89,92.093l-2.812,1.044l1.741,4.688l2.812-1.044l-0.409-1.103   c-0.001-0.002-0.002-0.004-0.002-0.007l-0.001-0.003c-0.003-0.007-0.006-0.013-0.008-0.02l-0.002-0.004   C629.694,94.256,628.89,92.093,628.89,92.093L628.89,92.093z M625.409,82.719l-2.812,1.044l1.74,4.687l2.812-1.044L625.409,82.719   L625.409,82.719z M621.926,73.344l-2.812,1.044l1.74,4.687l2.812-1.044L621.926,73.344L621.926,73.344z M613.297,70.187   l-0.502,2.958l4.93,0.836l0.502-2.958l-1.913-0.324l0,0l-0.041-0.007c-0.002,0-0.003,0-0.005-0.001l-0.006-0.001   c-0.003,0-0.006-0.001-0.009-0.001l-0.007-0.001c-0.006-0.001-0.012-0.002-0.018-0.003l-0.02-0.003   c-0.005-0.001-0.01-0.002-0.015-0.002l-0.003,0C614.834,70.448,613.297,70.187,613.297,70.187L613.297,70.187z M603.438,68.515   l-0.502,2.958l4.93,0.836l0.502-2.958l-3.619-0.614c-0.003,0-0.007-0.001-0.01-0.001l-0.016-0.002   c-0.005-0.001-0.01-0.002-0.015-0.003h-0.003c-0.006-0.001-0.013-0.002-0.019-0.003l-0.017-0.003   C603.963,68.605,603.438,68.515,603.438,68.515L603.438,68.515z M593.579,66.843l-0.501,2.958l4.929,0.836l0.502-2.958   L593.579,66.843L593.579,66.843z M583.719,65.171l-0.501,2.958l4.93,0.836l0.501-2.958c0,0-2.316-0.393-3.773-0.64l-0.043-0.007   l-0.001,0L583.719,65.171L583.719,65.171z M573.86,63.5l-0.501,2.958l4.93,0.836l0.501-2.958c0,0-1.515-0.257-2.865-0.486   l-0.008-0.001c-0.001,0-0.002,0-0.003,0L573.86,63.5L573.86,63.5z M564.001,61.828l-0.502,2.958l4.93,0.836l0.501-2.958   c0,0-0.908-0.154-1.945-0.33l-0.007-0.001c-0.002,0-0.005-0.001-0.008-0.001l-0.006-0.001c-0.001,0-0.003,0-0.004,0L564.001,61.828   L564.001,61.828z M554.142,60.156l-0.502,2.958l4.93,0.836l0.502-2.958c0,0-0.432-0.073-1.039-0.176L554.142,60.156L554.142,60.156   z M544.283,58.484l-0.502,2.958l4.93,0.836l0.502-2.958L544.283,58.484L544.283,58.484z M534.423,56.812l-0.502,2.958l4.93,0.836   l0.502-2.958l-1.486-0.252c-0.005-0.001-0.01-0.001-0.015-0.002l-0.01-0.001c-0.006-0.001-0.013-0.002-0.02-0.003l-0.014-0.002   c-0.003,0-0.007-0.001-0.01-0.001l-0.011-0.002C536.345,57.138,534.423,56.812,534.423,56.812L534.423,56.812z M524.564,55.14   l-0.502,2.958l4.93,0.836l0.502-2.958l-3.112-0.528c-0.002,0-0.003,0-0.004,0l-0.019-0.003c-0.003,0-0.007-0.001-0.01-0.001   l-0.009-0.001C525.375,55.278,524.564,55.14,524.564,55.14L524.564,55.14z M514.705,53.468l-0.501,2.958l4.929,0.836l0.502-2.958   l-4.79-0.812l-0.001,0l-0.037-0.006c-0.005,0-0.01-0.001-0.014-0.002l-0.004,0c-0.006-0.001-0.012-0.002-0.017-0.003h-0.001   c-0.002,0-0.003,0-0.004,0l0,0c-0.002,0-0.003,0-0.005-0.001l-0.003,0C514.728,53.472,514.709,53.469,514.705,53.468   L514.705,53.468L514.705,53.468L514.705,53.468L514.705,53.468L514.705,53.468L514.705,53.468L514.705,53.468L514.705,53.468z    M509.464,52.58c0,0-0.012,0.015-0.035,0.042l-0.001,0.001c-0.006,0.007-0.012,0.014-0.019,0.022l-0.001,0.001   c-0.003,0.004-0.007,0.008-0.011,0.012l-0.001,0.001c-0.001,0.002-0.003,0.004-0.005,0.006l-0.002,0.002v0.001l-3.114,3.761   l2.311,1.914l3.188-3.852l-2.03-1.681l0.03-0.179L509.464,52.58L509.464,52.58L509.464,52.58z"
   id="path107" />
</g>
<line
   fill="none"
   stroke="#341C97"
   stroke-width="5"
   stroke-miterlimit="10"
   x1="271.908"
   y1="341.507"
   x2="550.62"
   y2="221.771"
   id="line109" />
<path
   fill="none"
   stroke="#FFFFFF"
   stroke-miterlimit="10"
   d="M498.546,244.687"
   id="path111" />
<line
   fill="none"
   stroke="#341C97"
   stroke-width="5"
   stroke-miterlimit="10"
   x1="498.546"
   y1="244.687"
   x2="510.053"
   y2="440.598"
   id="line113" />
<rect
   x="464.09"
   y="431.25"
   fill="#FFFFFF"
   stroke="#939598"
   stroke-miterlimit="10"
   width="249.352"
   height="14.575"
   id="rect115" />
<text
   transform="matrix(1 0 0 1 451.0532 32.9996)"
   fill="#FFFFFF"
   font-family="'HelveticaNeue-Light'"
   font-size="30"
   id="text117">Polygonspiegel</text>

<text
   font-size="30"
   id="text119"
   style="font-size:30px;fill:#000000;font-family:HelveticaNeue-Light"
   x="462.08478"
   y="482.11053">UV-sensitive PCB</text>

<path
   opacity="0.47"
   fill="#00AAE6"
   d="M336.951,313.717c4.95,12.163,12.14,21.956,19.531,27.651  c1.314-9.239-0.379-21.27-5.33-33.432c-4.951-12.163-12.139-21.956-19.531-27.651C330.307,289.524,332,301.554,336.951,313.717z"
   id="path121" />
<polygon
   fill="#FFFFFF"
   stroke="#939598"
   stroke-width="3"
   stroke-miterlimit="10"
   points="458.758,227.596 444.333,115.132   534.517,46.407 639.128,90.146 653.553,202.61 563.369,271.336 "
   id="polygon123" />
<g
   id="g125">
	<g
   id="g127">
		<path
   fill="none"
   stroke="#000000"
   stroke-width="2"
   stroke-miterlimit="10"
   d="M546.572,172.845    c-0.206-0.035-0.408-0.074-0.611-0.117c-7.377-1.582-12.265-8.714-10.992-16.226c1.31-7.718,8.626-12.914,16.344-11.604    c5.098,0.865,9.096,4.352,10.845,8.844"
   id="path129" />
		<g
   id="g131">
			<polygon
   points="556.748,153.107 563.001,160.873 566.601,151.574    "
   id="polygon133" />
		</g>
	</g>
</g>
<text
   font-size="30"
   id="text135"
   style="font-size:30px;fill:#000000;font-family:HelveticaNeue-Light"
   x="191.80705"
   y="261.19492">collimator lens</text>

<text
   font-size="30"
   id="text135-0"
   style="font-size:30px;fill:#000000;font-family:HelveticaNeue-Light"
   x="241.43338"
   y="76.936043">polygon mirror</text>
</svg>